<?xml version="1.0" encoding="utf-8"?>
<!-- Generator: Adobe Illustrator 15.1.0, SVG Export Plug-In . SVG Version: 6.00 Build 0)  -->
<!DOCTYPE svg PUBLIC "-//W3C//DTD SVG 1.1//EN" "http://www.w3.org/Graphics/SVG/1.1/DTD/svg11.dtd">
<svg version="1.1" xmlns="http://www.w3.org/2000/svg" xmlns:xlink="http://www.w3.org/1999/xlink" x="0px" y="0px"
	 width="169.997px" height="147.65px" viewBox="0 0 169.997 147.65" enable-background="new 0 0 169.997 147.65"
	 xml:space="preserve">
<g id="Ebene_2">
</g>
<g id="Ebene_1">
	<polyline fill="#FFFFFF" stroke="#000000" stroke-miterlimit="10" points="118.355,28.282 116.664,16.425 114.972,1.184 
		108.197,0.846 67.219,2.201 54.013,11.348 50.966,28.956 65.187,72.301 62.143,92.619 8.976,114.634 0.847,146.803 169.15,146.803 
		158.314,115.646 107.183,92.619 100.068,72.976 105.484,68.917 111.582,69.591 113.954,66.207 115.307,61.462 115.307,54.693 
		115.646,44.529 116.664,34.375 115.646,29.968 118.355,28.282 	"/>
	<path fill="#FFFFFF" stroke="#000000" stroke-width="1.6925" stroke-linecap="round" stroke-linejoin="round" d="M118.355,28.282
		l-1.691-11.857l-1.692-15.241l-6.774-0.337L67.219,2.201l-13.206,9.147l-3.047,17.608l14.221,43.345l-3.044,20.317L8.976,114.634
		l-8.129,32.169H169.15l-10.836-31.157l-51.132-23.027l-7.114-19.643l5.416-4.06l6.098,0.675l2.372-3.384l1.353-4.745v-6.769
		l0.34-10.165l1.018-10.153l-1.018-4.407L118.355,28.282 M116.664,18.797l-3.725-5.083l-7.789-2.029l-14.563,0.337l-10.156,1.018
		l-0.68,5.757l2.373,11.514l-7.789,2.367v9.49l-7.115,0.675l0.34-5.757l-4.399-1.698l-3.73,5.757l3.05,6.438 M73.656,52.658
		l8.467,14.223l23.361,2.373 M143.076,136.982l3.725-17.271l10.161-3.728 M9.651,116.321l10.839,3.047l9.481,9.484 M89.912,99.05
		l-4.405,8.467l4.405,8.804h5.757l3.044-8.804L89.912,99.05"/>
	<polyline fill="#FFFFFF" stroke="#000000" stroke-miterlimit="10" points="62.82,58.415 62.48,47.582 59.43,41.144 63.16,35.387 
		67.56,37.085 67.219,42.842 74.334,42.167 74.334,32.678 82.123,30.311 79.75,18.797 80.431,13.041 97.702,11.686 105.15,11.686 
		112.939,13.715 116.664,18.797 114.972,1.184 67.219,2.201 54.013,11.348 50.966,28.956 65.187,72.301 	"/>
	<polyline fill="#FFFFFF" stroke="#000000" stroke-width="1.6925" stroke-linecap="round" stroke-linejoin="round" points="
		62.82,58.415 62.48,47.582 59.43,41.144 63.16,35.387 67.56,37.085 67.219,42.842 74.334,42.167 74.334,32.678 82.123,30.311 
		79.75,18.797 80.431,13.041 97.702,11.686 105.15,11.686 112.939,13.715 116.664,18.797 114.972,1.184 67.219,2.201 54.013,11.348 
		50.966,28.956 65.187,72.301 	"/>
	<polyline fill="#FFFFFF" stroke="#000000" stroke-miterlimit="10" points="63.495,87.2 90.587,96.003 83.475,109.215 63.495,87.2 
		63.495,87.2 	"/>
	<polyline fill="#FFFFFF" stroke="#000000" stroke-width="1.6925" stroke-linecap="round" stroke-linejoin="round" points="
		63.495,87.2 90.587,96.003 83.475,109.215 63.495,87.2 63.495,87.2 	"/>
	<polyline fill="#FFFFFF" stroke="#000000" stroke-miterlimit="10" points="108.197,92.282 87.54,96.003 100.408,107.517 
		108.197,92.282 	"/>
	<polyline fill="#FFFFFF" stroke="#000000" stroke-width="1.6925" stroke-linecap="round" stroke-linejoin="round" points="
		108.197,92.282 87.54,96.003 100.408,107.517 108.197,92.282 	"/>
	<polyline fill="#FFFFFF" stroke="#000000" stroke-miterlimit="10" points="121.403,121.066 111.582,92.282 107.183,96.003 
		98.376,146.803 103.458,146.803 113.273,135.626 109.889,121.066 121.403,121.066 	"/>
	<polyline fill="#FFFFFF" stroke="#000000" stroke-width="1.6925" stroke-linecap="round" stroke-linejoin="round" points="
		121.403,121.066 111.582,92.282 107.183,96.003 98.376,146.803 103.458,146.803 113.273,135.626 109.889,121.066 121.403,121.066 	
		"/>
	<polyline fill="#FFFFFF" stroke="#000000" stroke-miterlimit="10" points="74.674,109.215 61.803,88.897 50.966,96.34 
		60.11,107.18 68.577,107.18 64.853,119.031 78.733,146.803 79.75,146.803 74.674,109.215 	"/>
	<polyline fill="#FFFFFF" stroke="#000000" stroke-width="1.6925" stroke-linecap="round" stroke-linejoin="round" points="
		74.674,109.215 61.803,88.897 50.966,96.34 60.11,107.18 68.577,107.18 64.853,119.031 78.733,146.803 79.75,146.803 
		74.674,109.215 	"/>
	<polyline fill="#FFFFFF" stroke="#000000" stroke-miterlimit="10" points="97.361,146.803 94.989,116.321 95.669,116.321 
		98.713,107.517 89.912,99.05 85.507,107.517 89.912,116.321 88.895,146.803 97.361,146.803 	"/>
	<polyline fill="#FFFFFF" stroke="#000000" stroke-width="1.6925" stroke-linecap="round" stroke-linejoin="round" points="
		97.361,146.803 94.989,116.321 95.669,116.321 98.713,107.517 89.912,99.05 85.507,107.517 89.912,116.321 88.895,146.803 
		97.361,146.803 	"/>
</g>
</svg>
